:SAMPLES-PER-SECOND 30
:FULLY-SPECIFIED
:DEGREES
409
root  26.0065 38.0438 -1.16185 172.374 -72.1735 -178.412
RightUpLeg  21.4555 -9.59748 -0.704139
RightLeg  11.1255 12.6324 3.64675
RightFoot  -18.1335 -0.174814 -0.879735
RightToes  5.82063e-011 0 -3.6325e-017
Spine  5.31442 3.33936 12.3697
Spine1  8.67141 6.97091 -11.5267
HEad  -26.847 -2.52011 -4.92813
LeftShoulder1  0.423897 2.28839 -28.7416
LeftArm  -4.82874 25.315 -36.8791
LeftForeArm  28.4764 -6.60039 -7.66669
LeftHand  -0.219461 9.36536 -4.65402
RightShoulder  -0.377957 -4.5954 27.5689
RightArm  44.9414 16.6649 64.7933
RightForeArm  9.57484 38.3386 8.27655
RightHand  -0.421385 7.44323 -4.16598
LeftUpLeg  -14.8088 1.31327 -3.71652
LeftLeg  -1.46112 12.0613 -1.76855
LeftFoot  4.06479 -0.262767 1.70842
LeftToes  1.68253e-010 -3.2327e-011 -2.69673e-012
410
root  24.5417 37.8966 -1.5845 175.73 -71.6763 177.642
RightUpLeg  23.9511 -10.3076 -3.51329
RightLeg  12.4449 15.2082 4.14634
RightFoot  -18.3949 -0.0456265 1.22814
RightToes  5.82063e-011 0 -3.6325e-017
Spine  5.01583 3.637 9.83484
Spine1  9.02292 7.15641 -11.2414
HEad  -26.9953 -2.13503 -4.39871
LeftShoulder1  0.349191 2.50279 -28.8042
LeftArm  -4.86948 23.4423 -36.356
LeftForeArm  28.0889 -6.42984 -7.67146
LeftHand  -0.195766 9.7501 -3.65028
RightShoulder  -0.432568 -4.73297 28.2384
RightArm  45.8457 14.3046 63.4657
RightForeArm  7.39061 34.8102 7.36275
RightHand  -0.401905 7.26509 -4.03866
LeftUpLeg  -15.6726 1.39265 -5.222
LeftLeg  4.14466 11.7873 -0.820035
LeftFoot  8.99835 -1.23972 6.74973
LeftToes  1.68253e-010 -3.2327e-011 -2.69673e-012
411
root  23.0837 37.8076 -1.9818 -178.086 -70.7111 170.691
RightUpLeg  24.6173 -10.6666 -7.91563
RightLeg  17.3026 18.4278 6.10171
RightFoot  -17.9601 0.140389 4.51499
RightToes  5.82063e-011 0 -3.6325e-017
Spine  5.26488 3.96782 6.30515
Spine1  8.34193 7.19636 -11.15
HEad  -26.8862 -1.58591 -4.18178
LeftShoulder1  0.218279 2.89051 -29.4251
LeftArm  -4.01227 20.6977 -34.9011
LeftForeArm  27.3924 -6.12481 -8.13006
LeftHand  -0.191164 10.5487 -2.79106
RightShoulder  -0.46446 -4.79311 29.0935
RightArm  49.3732 12.1809 62.5868
RightForeArm  2.71527 28.3872 5.98974
RightHand  -0.354949 6.68097 -3.75988
LeftUpLeg  -16.1113 3.5058 -7.56437
LeftLeg  10.3312 10.4321 -0.340738
LeftFoot  7.53484 -1.56162 9.0734
LeftToes  1.68253e-010 -3.2327e-011 -2.69673e-012
412
root  21.7741 37.7944 -2.28005 -173.748 -70.2841 165.97
RightUpLeg  21.9543 -9.08476 -10.4298
RightLeg  26.37 18.8155 9.6603
RightFoot  -14.7398 0.173477 10.2051
RightToes  5.82063e-011 0 -3.6325e-017
Spine  5.9799 3.95861 4.24363
Spine1  7.08662 7.03107 -12.0375
HEad  -26.2089 -1.38516 -4.10182
LeftShoulder1  0.24946 2.80648 -29.6532
LeftArm  -3.93666 16.9242 -34.5727
LeftForeArm  27.1883 -4.64946 -8.27548
LeftHand  -0.131474 9.65893 -1.96847
RightShoulder  -0.473719 -4.81024 29.3101
RightArm  48.3724 11.128 62.3729
RightForeArm  2.62692 18.0034 7.0586
RightHand  -0.246779 5.42504 -2.9332
LeftUpLeg  -15.7631 6.09688 -10.0631
LeftLeg  14.1048 8.13714 0.595649
LeftFoot  4.86988 -1.36023 9.35447
LeftToes  1.68253e-010 -3.2327e-011 -2.69673e-012
413
root  20.6327 37.7902 -2.41932 -173.006 -68.894 164.789
RightUpLeg  16.2544 -5.18924 -10.9863
RightLeg  38.4913 16.6466 13.5122
RightFoot  -7.79885 -0.577089 17.0961
RightToes  5.82063e-011 0 -3.6325e-017
Spine  7.44485 4.10916 4.22607
Spine1  5.97444 7.21311 -13.8422
HEad  -25.0603 -1.0969 -5.56093
LeftShoulder1  0.265073 2.76633 -29.8362
LeftArm  -4.41998 12.476 -35.319
LeftForeArm  27.5984 -3.29315 -8.14751
LeftHand  -0.201411 10.5644 -3.08472
RightShoulder  -0.357113 -4.50679 28.5047
RightArm  27.68 11.5783 61.3598
RightForeArm  22.9144 4.34943 12.602
RightHand  -0.0688298 2.51294 -1.18457
LeftUpLeg  -15.2204 6.50795 -11.0799
LeftLeg  17.1887 9.6964 1.75532
LeftFoot  2.53974 -1.38769 11.2161
LeftToes  1.68253e-010 -3.2327e-011 -2.69673e-012
414
root  19.5788 37.8022 -2.56085 -171.907 -67.0179 163.036
RightUpLeg  9.27714 -0.668614 -11.7713
RightLeg  50.5336 13.6053 16.762
RightFoot  2.36679 -2.32413 19.3338
RightToes  5.82063e-011 0 -3.6325e-017
Spine  8.38419 4.37605 2.90058
Spine1  5.91718 7.29129 -14.466
HEad  -24.8818 -0.312502 -6.57254
LeftShoulder1  0.324814 2.59162 -29.48
LeftArm  -4.73505 8.10018 -37.2314
LeftForeArm  27.3223 -2.73499 -8.22779
LeftHand  -0.0776419 10.4671 -0.44469
RightShoulder  -0.27295 -4.27019 28.1099
RightArm  18.9889 12.3949 59.4213
RightForeArm  30.747 -4.19419 10.834
RightHand  -0.00968964 -0.803891 -0.261429
LeftUpLeg  -13.8273 6.88029 -11.8949
LeftLeg  18.9082 11.2063 2.19003
LeftFoot  0.0430372 -1.11827 11.1454
LeftToes  1.68253e-010 -3.2327e-011 -2.69673e-012
415
root  18.5317 37.8248 -2.717 -171.031 -66.4204 161.019
RightUpLeg  3.95327 2.24611 -12.7839
RightLeg  58.9227 10.3401 17.4077
RightFoot  8.42754 -3.44372 19.9257
RightToes  5.82063e-011 0 -3.6325e-017
Spine  8.37123 4.06746 0.201819
Spine1  7.64363 6.33462 -12.8686
HEad  -25.2471 1.075 -7.39817
LeftShoulder1  0.434827 2.27727 -29.3536
LeftArm  -4.63906 3.51958 -39.2135
LeftForeArm  26.835 -3.10527 -8.45995
LeftHand  -0.0587095 9.5736 -0.186568
RightShoulder  -0.163359 -3.96438 27.3101
RightArm  14.8125 12.4412 56.3197
RightForeArm  31.8192 -6.01315 8.75253
RightHand  -0.0466321 -2.63551 -1.34438
LeftUpLeg  -11.5957 6.58252 -12.8161
LeftLeg  20.1572 12.2683 2.57688
LeftFoot  -2.3718 -0.805054 10.4384
LeftToes  1.68253e-010 -3.2327e-011 -2.69673e-012
